# xmcd
#
# Track frame offsets:
#	150
#	16587
#	33670
#	49912
#	66045
#	83541
#	100308
#	114256
#	130995
#	143302
#	163274
#	173684
#	188785
#	199305
#	215653
#	232845
#	248283
#
# Disc length: 3533 seconds
#
# Revision: 1
# Processed by: cddbd v1.5.2PL0 Copyright (c) Steve Scherf et al.
# Submitted via: audiograbber 1.83.01
#
DISCID=d70dcb11
DTITLE=Roto Noto - Audio Radiance for the Radio Audience
DYEAR=1900
DGENRE=
TTITLE0=C Luv Radio  - Michael Terry
TTITLE1=Heart Of Luv  - Michael Terry
TTITLE2=Run For Your Money  - Diane Raeside
TTITLE3=I Don´t Need You  - Diane Raeside
TTITLE4=Stoned To The Bone (with The Blues) - Jack Diamond
TTITLE5=Someone T Lean On  - Jack Diamond
TTITLE6=The Trouble With Men  - Manon
TTITLE7=How About A Little Love Affair  - Manon
TTITLE8=It´s All Over (over Again)  - Bobby Mcgee
TTITLE9=Kentucky Grass  - Bobby Mcgee
TTITLE10=Boy Next Door  - Lynne and The Rebels
TTITLE11=He´s There  - Lynne and The Rebels
TTITLE12=The Road I Walk  - Mark La Forme
TTITLE13=Long Gone  - Mark La Forme
TTITLE14=Where You Gonna Hang Your Hat  - Sylvie
TTITLE15=m Comming Home  - Sylvie
TTITLE16=Bøh - Bøh
EXTD=
EXTT0=
EXTT1=
EXTT2=
EXTT3=
EXTT4=
EXTT5=
EXTT6=
EXTT7=
EXTT8=
EXTT9=
EXTT10=
EXTT11=
EXTT12=
EXTT13=
EXTT14=
EXTT15=
EXTT16=
PLAYORDER=
